<svg width="50" height="50" viewBox="0 0 50 50" fill="none" xmlns="http://www.w3.org/2000/svg">
<path d="M50 25C50 38.8071 38.8071 50 25 50C11.1929 50 9.90987e-06 38.8071 9.90987e-06 25C9.90987e-06 11.1929 11.1929 0 25 0C38.8071 0 50 11.1929 50 25Z" fill="#1E407A"/>
<path d="M23.7148 32.2035C24.3006 32.7893 25.2503 32.7893 25.8361 32.2035L35.3822 22.6577C35.968 22.0719 35.968 21.1222 35.3822 20.5364C34.7964 19.9506 33.8467 19.9506 33.2609 20.5363L24.7755 29.0215L16.2903 20.5362C15.7045 19.9504 14.7548 19.9504 14.169 20.5361C13.5832 21.1219 13.5832 22.0717 14.169 22.6575L23.7148 32.2035ZM23.2755 28.0816L23.2755 31.1428L26.2755 31.1429L26.2755 28.0816L23.2755 28.0816Z" fill="white"/>
</svg>
