<svg width="372" height="128" viewBox="0 0 372 128" fill="none" xmlns="http://www.w3.org/2000/svg">
<path d="M31.9566 7.93236C25.3216 9.10419 20.176 11.8084 16.0686 16.2253C13.1799 19.3803 11.555 22.5352 10.8328 26.5915C9.25299 35.2901 12.9542 42.9972 20.7628 47.0535C25.3216 49.4873 28.0749 50.2986 37.689 52.2366C47.1225 54.1746 50.3723 55.2112 53.577 57.4197C59.3093 61.3859 59.851 69.6338 54.7054 74.9521C51.275 78.5127 46.0392 80.2704 38.8174 80.3155C31.1442 80.3155 23.3807 78.0169 16.7908 73.7803L13.7215 71.7972L10.8779 76.0338C7.71835 80.8563 7.58294 80.1352 11.9612 83.1098C16.7005 86.3098 22.1169 88.5183 28.6617 89.9605C34.1232 91.1324 44.1435 91.0422 49.3793 89.7803C62.1981 86.6253 69.5102 77.9267 69.5102 65.8479C69.5102 53.0028 61.6113 46.4225 41.2999 42.3662C28.3006 39.7521 23.6967 37.4084 22.0718 32.5859C21.4398 30.6929 21.8009 27.1774 22.7488 25.3295C27.3527 16.4957 45.2719 14.9183 57.549 22.3098C58.9934 23.2112 60.3023 23.7521 60.4829 23.5718C60.6634 23.3915 62.0627 21.5436 63.5973 19.5155L66.3506 15.8197L64.3195 14.4225C61.3856 12.3943 55.2922 9.59997 52.1326 8.7887C45.4073 7.1211 38.0952 6.8056 31.9566 7.93236Z" fill="#1E407A"/>
<path d="M177.612 32.0901C172.376 33.0817 165.877 37.6338 164.342 41.4197C163.981 42.1859 163.62 42.8169 163.439 42.8169C163.304 42.8169 163.259 40.4732 163.304 37.6338L163.484 32.4507H158.474H153.464V60.845V89.2394H158.88H164.297V72.6084C164.297 57.2394 164.342 55.7521 165.2 53.138C167.456 45.9267 173.685 41.4197 181.449 41.3296C190.341 41.1943 195.621 45.9267 196.795 55.076C197.021 56.8788 197.246 65.307 197.246 73.7803V89.2394H202.437H207.628V70.8507C207.628 50.3436 207.402 48.4957 204.739 43.0422C200.993 35.4253 193.726 31.5042 183.705 31.5943C181.584 31.6394 178.876 31.8648 177.612 32.0901Z" fill="#1E407A"/>
<path d="M250.056 31.8648C247.077 32.3605 243.015 34.0732 240.668 35.7859C238.366 37.4986 235.161 41.3746 235.161 42.4563C235.161 42.6366 235.026 42.8169 234.845 42.8169C234.619 42.8169 234.529 40.4732 234.619 37.6338L234.755 32.4507H229.79H224.78V60.845V89.2394H230.196H235.612V72.5634C235.612 56.8789 235.658 55.707 236.56 53.0929C239.043 45.7014 245.046 41.3746 252.99 41.3296C258.045 41.2845 260.889 42.3211 263.868 45.2958C265.718 47.1436 266.441 48.2704 267.253 50.7493C268.246 53.7239 268.291 54.5803 268.472 71.5267L268.652 89.2394H273.798H278.943V70.6253C278.943 50.0732 278.763 48.3155 276.19 43.0873C273.437 37.4535 268.291 33.5774 261.837 32.1803C259.083 31.5943 252.674 31.4141 250.056 31.8648Z" fill="#1E407A"/>
<path d="M81.697 49.7577C81.697 71.5267 82.0581 74.0056 86.4815 80.676C89.3702 85.138 93.5228 88.0676 98.8489 89.4648C102.234 90.3662 110.178 90.3211 113.338 89.4197C117.851 88.1127 121.914 85.1831 124.216 81.6225L125.479 79.5943V84.4169V89.2394H130.444H135.409V60.845V32.4507H129.993H124.577V48.9915C124.577 66.9746 124.441 68.1915 122.049 72.5634C118.438 79.1436 110.584 82.1183 102.911 79.8197C100.203 78.9634 99.21 78.4225 97.2691 76.4394C95.7345 74.907 94.5609 73.1943 93.8387 71.4366C92.7555 68.7774 92.7555 68.5521 92.62 50.569L92.4846 32.4507H87.0683H81.697V49.7577Z" fill="#1E407A"/>
<path d="M286.842 33.2169C286.978 33.6676 292.484 46.8281 299.074 62.4225L311.035 90.8619L308.688 96.4507C304.852 105.465 301.828 107.853 296.095 106.276C294.741 105.915 293.252 105.465 292.845 105.284C292.259 105.014 291.762 105.69 290.273 108.89C289.235 111.053 288.422 113.037 288.422 113.352C288.422 113.983 291.717 115.515 294.877 116.327C296.095 116.597 298.578 116.777 300.519 116.642C306.702 116.282 311.081 113.397 314.692 107.313C315.594 105.78 322.545 89.0591 330.128 70.1746C337.711 51.2901 344.211 35.0648 344.617 34.1183L345.339 32.4056L339.381 32.5408L333.423 32.676L326.292 52.507C322.32 63.4141 318.573 73.8253 317.896 75.6732L316.723 78.9633L314.285 72.5183C312.976 68.9577 308.824 58.4563 305.077 49.2169L298.217 32.4507H292.394C286.978 32.4507 286.526 32.4957 286.842 33.2169Z" fill="#1E407A"/>
<path d="M354.502 77.0704C352.606 77.6563 350.44 80.1352 350.078 82.2084C349.627 84.5972 350.485 87.1662 352.29 88.7436C353.735 90.0056 354.186 90.1408 356.804 90.1408C359.241 90.1408 359.873 89.9605 361.137 88.9239C362.717 87.5718 363.8 85.4084 363.8 83.5155C363.8 81.7127 362.175 78.738 360.731 77.8817C359.061 76.8901 356.307 76.5296 354.502 77.0704Z" fill="#1E407A"/>
<path d="M19.4087 108.169V116.732H20.7628H22.1169V112.721C22.1169 108.89 22.162 108.62 23.2904 107.763C24.7348 106.637 25.6375 106.592 26.9916 107.538C27.8943 108.169 27.9846 108.575 27.9846 112.496V116.732H29.3387H30.6928V111.955C30.6928 107.313 30.6477 107.177 29.3839 105.87C28.3006 104.834 27.6687 104.563 26.0889 104.563C25.0056 104.563 23.6515 104.879 23.1099 105.284L22.1169 105.961V102.806V99.6056H20.7628H19.4087V108.169Z" fill="#1E407A"/>
<path d="M53.7124 108.169V116.732H55.0665C55.9692 116.732 56.4206 116.507 56.4206 116.011C56.4206 115.38 56.5109 115.38 57.4136 116.011C57.9552 116.417 59.3093 116.732 60.3926 116.732C64.2292 116.732 66.3506 114.569 66.3506 110.648C66.3506 109.521 66.0347 107.989 65.6736 107.268C64.3646 104.744 60.5732 103.797 57.7747 105.239L56.4206 105.961V102.761V99.6056H55.0665H53.7124V108.169ZM61.521 107.313C63.7778 108.349 64.3195 111.594 62.514 113.352C59.6253 116.282 55.247 112.992 56.872 109.115C57.6844 107.132 59.5802 106.411 61.521 107.313Z" fill="#1E407A"/>
<path d="M78.718 100.237C78.1764 101.634 78.718 102.535 80.1172 102.535C81.3359 102.535 81.4713 102.4 81.4713 101.183C81.4713 100.056 81.2908 99.831 80.2075 99.6958C79.4402 99.6056 78.8986 99.7859 78.718 100.237Z" fill="#1E407A"/>
<path d="M100.654 108.169V116.732H102.008H103.363V112.721C103.363 108.89 103.408 108.62 104.536 107.763C105.98 106.637 106.883 106.592 108.237 107.538C109.14 108.169 109.23 108.575 109.23 112.496V116.732H110.584H111.938V111.955C111.938 107.313 111.893 107.177 110.63 105.87C109.546 104.834 108.914 104.563 107.335 104.563C106.251 104.563 104.942 104.879 104.446 105.239C103.994 105.6 103.498 105.915 103.363 105.915C103.227 105.915 103.182 104.473 103.272 102.761L103.453 99.6056H102.054H100.654V108.169Z" fill="#1E407A"/>
<path d="M143.083 100.282C142.812 100.642 142.631 101.273 142.722 101.724C142.947 102.896 145.926 102.896 146.152 101.724C146.513 99.9662 144.256 98.8845 143.083 100.282Z" fill="#1E407A"/>
<path d="M158.429 102.761V105.961L157.075 105.239C155.36 104.338 152.787 104.383 151.162 105.33C147.732 107.358 147.596 113.803 150.936 116.011C152.381 116.958 156.082 116.958 157.436 116.011C158.339 115.38 158.429 115.38 158.429 116.011C158.429 116.507 158.88 116.732 159.783 116.732H161.137V108.169V99.6056H159.783H158.429V102.761ZM157.165 108.169C158.339 109.386 158.519 109.792 158.294 111.234C157.978 113.172 156.578 114.479 154.863 114.479C150.124 114.479 150.214 107.042 154.954 106.862C155.405 106.817 156.398 107.448 157.165 108.169Z" fill="#1E407A"/>
<path d="M200.948 100.642C200.406 101.228 199.819 102.31 199.684 103.121C199.458 104.248 199.142 104.563 198.33 104.563C197.472 104.563 197.246 104.789 197.246 105.69C197.246 106.592 197.472 106.817 198.375 106.817H199.503V111.775V116.732H200.857H202.166L202.302 111.865L202.437 107.042L204.152 106.907C205.597 106.772 205.822 106.592 205.822 105.645C205.822 104.699 205.642 104.563 204.017 104.563C202.076 104.563 201.76 104.023 202.798 102.58C203.25 101.949 203.836 101.814 204.829 101.949C205.913 102.084 206.319 101.949 206.68 101.138C207.222 99.9211 206.635 99.6056 203.836 99.6056C202.437 99.6056 201.67 99.876 200.948 100.642Z" fill="#1E407A"/>
<path d="M252.313 108.169V116.732H253.667C255.021 116.732 255.021 116.687 255.021 114.299V111.82L257.323 114.299C259.399 116.462 259.851 116.732 261.521 116.732H263.326L260.528 113.893C258.993 112.361 257.729 110.828 257.729 110.558C257.729 110.287 258.767 108.935 259.986 107.583C261.25 106.231 262.243 104.969 262.243 104.834C262.243 104.699 261.566 104.563 260.708 104.563C259.399 104.563 258.858 104.924 257.097 106.907L255.021 109.296V104.428V99.6056H253.667H252.313V108.169Z" fill="#1E407A"/>
<path d="M10.3814 102.986C10.3814 104.383 10.246 104.563 9.25298 104.563C8.35026 104.563 8.12457 104.789 8.12457 105.69C8.12457 106.592 8.35026 106.817 9.20785 106.817C10.246 106.817 10.2911 106.952 10.4717 110.918C10.6071 114.569 10.7425 115.11 11.6904 115.876C12.8188 116.777 16.4297 117.093 16.9262 116.282C17.4678 115.425 16.3394 114.118 15.1659 114.344C13.6312 114.659 12.9993 113.262 13.1799 109.837L13.3153 107.042L15.0305 106.907C16.4748 106.772 16.7005 106.592 16.7005 105.645C16.7005 104.699 16.52 104.563 14.895 104.563C13.1347 104.563 13.0896 104.518 13.0896 102.986C13.0896 101.544 12.9993 101.408 11.7355 101.408C10.4717 101.408 10.3814 101.544 10.3814 102.986Z" fill="#1E407A"/>
<path d="M116.452 102.986C116.452 104.383 116.317 104.563 115.324 104.563C114.421 104.563 114.195 104.789 114.195 105.69C114.195 106.592 114.421 106.817 115.324 106.817C116.452 106.817 116.452 106.862 116.452 110.648C116.452 114.163 116.542 114.614 117.581 115.606C118.393 116.462 119.16 116.732 120.695 116.732C122.952 116.732 123.268 116.462 122.771 115.11C122.5 114.389 122.094 114.208 121.327 114.344C119.612 114.659 119.115 113.623 119.251 110.107L119.386 107.042L121.101 106.907C122.546 106.772 122.771 106.592 122.771 105.645C122.771 104.699 122.591 104.563 120.966 104.563C119.205 104.563 119.16 104.518 119.16 102.986C119.16 101.544 119.07 101.408 117.806 101.408C116.542 101.408 116.452 101.544 116.452 102.986Z" fill="#1E407A"/>
<path d="M36.2446 105.465C35.4321 105.915 34.4843 106.952 34.0781 107.673C32.6337 110.513 33.717 114.794 36.1543 116.056C37.8244 116.913 41.661 116.913 43.331 116.056C44.8657 115.29 45.0011 114.839 44.0081 114.028C43.4664 113.577 43.0602 113.577 42.1575 113.983C40.1263 114.884 38.0952 114.614 37.0119 113.217L36.0189 112L40.5777 111.865L45.1365 111.73V109.701C45.1365 107.944 44.9108 107.403 43.6018 106.096C42.2929 104.789 41.7513 104.563 39.9007 104.563C38.5014 104.563 37.1473 104.879 36.2446 105.465ZM41.8867 108.034L43.1053 109.296L41.1645 109.431C40.1263 109.521 38.5014 109.521 37.5536 109.431L35.8835 109.296L37.1022 108.034C37.8244 107.358 38.8174 106.817 39.4944 106.817C40.1715 106.817 41.1645 107.358 41.8867 108.034Z" fill="#1E407A"/>
<path d="M69.0588 110.648V116.732H70.4129H71.767V112.901C71.767 109.341 71.8573 108.935 72.9405 107.899C73.753 107.042 74.3849 106.817 75.1071 106.997C75.9647 107.223 76.2355 107.042 76.4612 106.231C76.5966 105.69 76.732 105.104 76.732 104.879C76.732 104.293 73.7981 104.563 72.76 105.284C71.8573 105.915 71.767 105.915 71.767 105.284C71.767 104.789 71.3156 104.563 70.4129 104.563H69.0588V110.648Z" fill="#1E407A"/>
<path d="M78.9888 110.648V116.732H80.3429H81.697V110.648V104.563H80.3429H78.9888V110.648Z" fill="#1E407A"/>
<path d="M87.0231 105.284C85.2628 106.231 84.4052 108.169 84.4052 111.144C84.4052 113.397 84.5406 113.803 85.9398 115.2C87.2939 116.552 87.7453 116.732 89.7764 116.732C91.2208 116.732 92.5749 116.417 93.2971 115.966L94.4706 115.155L94.1547 116.732C93.7485 118.941 92.5298 119.977 90.4084 119.977C89.4605 119.977 88.1064 119.707 87.3842 119.437C86.662 119.166 86.0301 119.031 85.985 119.076C85.9398 119.166 85.669 119.662 85.3982 120.158C84.9017 121.059 85.0371 121.194 86.662 121.87C89.1897 122.862 92.4395 122.772 94.245 121.69C96.5921 120.248 97.0434 118.58 97.0434 111.099V104.563H95.6893C94.606 104.563 94.3352 104.744 94.3352 105.555C94.3352 106.141 94.1998 106.366 93.9741 106.096C92.936 104.518 89.1897 104.068 87.0231 105.284ZM92.8006 107.899C93.7485 108.71 94.0644 109.341 94.0644 110.648C94.0644 111.955 93.7485 112.586 92.8006 113.397C91.3111 114.704 89.8667 114.749 88.2869 113.532C86.3461 112 86.7974 108.169 89.0543 107.268C90.6792 106.637 91.4916 106.772 92.8006 107.899Z" fill="#1E407A"/>
<path d="M132.16 105.465C131.257 106.141 130.896 106.862 130.896 107.763C130.896 110.423 131.437 110.828 136.448 111.955C137.441 112.18 137.711 112.496 137.576 113.262C137.486 114.073 137.125 114.299 135.545 114.389C134.507 114.479 133.198 114.299 132.656 114.028C131.889 113.577 131.573 113.623 130.986 114.163C129.858 115.29 130.67 116.192 133.378 116.732C137.441 117.589 140.374 116.101 140.374 113.262C140.374 111.234 139.156 110.152 136.086 109.521C133.875 109.07 133.559 108.89 133.694 108.034C133.875 106.862 135.635 106.501 137.711 107.223C138.84 107.583 139.065 107.538 139.517 106.727C140.239 105.375 139.427 104.879 136.177 104.654C133.83 104.518 133.198 104.608 132.16 105.465Z" fill="#1E407A"/>
<path d="M143.083 110.648V116.732H144.437H145.791V110.648V104.563H144.437H143.083V110.648Z" fill="#1E407A"/>
<path d="M167.231 105.014C165.335 105.78 164.161 107.628 163.936 110.107C163.575 114.479 165.696 116.732 170.165 116.732C172.376 116.732 175.13 115.741 175.13 114.975C175.13 114.749 174.814 114.344 174.452 114.028C173.911 113.577 173.505 113.577 172.602 113.983C170.751 114.794 168.63 114.614 167.547 113.442C167.005 112.856 166.554 112.27 166.554 112.09C166.554 111.91 168.585 111.775 171.067 111.775H175.581V109.701C175.581 107.944 175.355 107.403 174.046 106.096C172.692 104.744 172.241 104.563 170.345 104.608C169.126 104.608 167.727 104.789 167.231 105.014ZM171.88 107.538C173.821 108.89 173.144 109.521 169.713 109.521C166.689 109.521 166.554 109.476 167.005 108.62C167.953 106.817 170.165 106.321 171.88 107.538Z" fill="#1E407A"/>
<path d="M186.098 105.465C183.435 107.087 182.487 110.693 183.931 113.758C184.924 115.786 186.73 116.732 189.754 116.732C192.011 116.732 192.462 116.552 193.997 115.2C195.621 113.713 195.667 113.532 195.667 110.648C195.667 107.763 195.621 107.583 193.997 106.096C192.507 104.744 192.011 104.563 189.934 104.563C188.355 104.563 187.046 104.879 186.098 105.465ZM191.063 107.313C193.32 108.349 193.861 111.594 192.056 113.352C189.167 116.282 184.789 112.992 186.414 109.115C187.226 107.132 189.122 106.411 191.063 107.313Z" fill="#1E407A"/>
<path d="M215.075 105.059C211.555 107.087 212.773 110.918 217.197 111.639C218.19 111.775 219.273 112.18 219.634 112.541C221.169 114.118 217.919 115.11 214.985 113.983C213.947 113.623 213.631 113.668 213.18 114.299C212.367 115.425 212.412 115.651 213.857 116.192C216.113 117.093 217.919 117.228 219.815 116.732C221.259 116.327 221.801 115.876 222.433 114.659C223.11 113.217 223.11 112.946 222.478 111.865C222.026 111.053 221.124 110.423 219.815 110.017C216.113 108.89 215.662 108.62 215.843 107.808C215.978 107.223 216.429 107.042 218.009 107.087C219.138 107.087 220.356 107.268 220.808 107.448C221.71 107.853 222.433 106.096 221.665 105.33C220.988 104.653 216.159 104.428 215.075 105.059Z" fill="#1E407A"/>
<path d="M227.488 105.284C225.005 106.952 223.967 109.746 224.78 112.631C225.502 115.335 227.443 116.732 230.467 116.732C233.491 116.732 235.342 115.831 236.335 113.893C237.914 110.873 236.876 106.592 234.258 105.239C232.498 104.338 228.887 104.383 227.488 105.284ZM233.13 107.854C235.612 109.972 234.033 114.479 230.873 114.479C227.713 114.479 226.134 109.972 228.616 107.854C229.248 107.268 230.286 106.817 230.873 106.817C231.46 106.817 232.498 107.268 233.13 107.854Z" fill="#1E407A"/>
<path d="M241.841 105.284C238.456 107.087 238.005 112.992 241.074 115.561C242.247 116.552 242.879 116.732 245.272 116.732C248.702 116.732 249.966 116.011 249.153 114.524C248.792 113.803 248.386 113.623 247.89 113.848C244.64 115.245 241.841 113.758 241.841 110.648C241.841 109.296 242.112 108.62 243.06 107.854C244.324 106.727 245.317 106.592 247.077 107.268C248.025 107.628 248.341 107.538 248.928 106.682C249.56 105.78 249.514 105.69 248.567 105.149C247.212 104.383 243.331 104.473 241.841 105.284Z" fill="#1E407A"/>
<path d="M266.08 105.059C262.559 107.087 263.778 110.918 268.156 111.594C269.104 111.775 270.232 112.135 270.683 112.451C271.36 112.946 271.36 113.127 270.864 113.758C270.187 114.569 267.84 114.704 265.989 113.983C264.951 113.623 264.635 113.668 264.184 114.299C263.868 114.749 263.597 115.245 263.597 115.425C263.597 116.056 266.576 116.913 268.833 116.913C271.631 116.913 273.346 115.921 273.753 114.028C274.204 112.045 273.076 110.603 270.729 109.927C267.434 109.07 266.666 108.665 266.847 107.808C267.027 106.862 269.374 106.546 271.27 107.223C272.399 107.583 272.624 107.538 272.895 106.727C273.031 106.231 272.94 105.6 272.669 105.33C271.992 104.654 267.163 104.428 266.08 105.059Z" fill="#1E407A"/>
</svg>
